<svg width="32" height="32" viewBox="0 0 32 32" fill="none" xmlns="http://www.w3.org/2000/svg">
<path fill-rule="evenodd" clip-rule="evenodd" d="M30 28C30 29.1 29.104 30 28 30H4C2.896 30 2 29.1 2 28V4C2 2.896 2.896 2 4 2H28C29.104 2 30 2.896 30 4V28ZM28 0H4C1.791 0 0 1.791 0 4V28C0 30.21 1.791 32 4 32H28C30.209 32 32 30.21 32 28V4C32 1.791 30.209 0 28 0ZM21.121 16.465L17 20.59V10C17 9.447 16.553 9 16 9C15.448 9 15 9.447 15 10V20.59L10.879 16.465C10.488 16.074 9.85503 16.074 9.46503 16.465C9.07403 16.855 9.07403 17.49 9.46503 17.88L15.121 23.54C15.361 23.78 15.689 23.85 16 23.79C16.311 23.85 16.639 23.78 16.879 23.54L22.535 17.88C22.926 17.49 22.926 16.855 22.535 16.465C22.146 16.074 21.512 16.074 21.121 16.465Z" fill="black"/>
</svg>
