<?xml version="1.0" standalone="no"?>
<!DOCTYPE svg PUBLIC "-//W3C//DTD SVG 20010904//EN"
 "http://www.w3.org/TR/2001/REC-SVG-20010904/DTD/svg10.dtd">
<svg version="1.0" xmlns="http://www.w3.org/2000/svg"
 width="260.000000pt" height="260.000000pt" viewBox="0 0 260.000000 260.000000"
 preserveAspectRatio="xMidYMid meet">
<metadata>
Created by potrace 1.14, written by Peter Selinger 2001-2017
</metadata>
<g transform="translate(0.000000,260.000000) scale(0.100000,-0.100000)"
fill="#000000" stroke="none">
<path d="M1254 2106 c-22 -10 -49 -44 -101 -127 -225 -363 -361 -644 -398
-824 -45 -220 59 -456 260 -587 168 -110 402 -110 570 0 189 123 300 358 266
558 -32 180 -168 471 -389 828 -68 111 -92 141 -118 152 -40 17 -50 17 -90 0z
m118 -426 c158 -273 268 -529 268 -623 0 -96 -52 -208 -125 -269 -91 -76 -220
-99 -329 -58 -100 38 -179 124 -210 230 -33 110 -13 194 99 428 84 175 214
404 227 400 5 -2 37 -51 70 -108z"/>
</g>
</svg>
